<svg width="24" height="24" viewBox="0 0 24 24" fill="none" xmlns="http://www.w3.org/2000/svg">
<path fill-rule="evenodd" clip-rule="evenodd" d="M18.4998 12C19.3282 12 19.9998 12.6716 19.9998 13.5C19.9998 14.3284 19.3282 15 18.4998 15H5.49982C4.67139 15 3.99982 14.3284 3.99982 13.5C3.99982 12.6716 4.67139 12 5.49982 12L7.55809 6.97553C7.80957 4.71226 9.72261 3 11.9998 3C14.277 3 16.1901 4.71226 16.4415 6.97553L18.4998 12Z" fill="#F0F0F0"/>
<path d="M14 18C14 16.8954 13.1046 16 12 16C10.8954 16 10 16.8954 10 18C10 19.1046 10.8954 20 12 20C13.1046 20 14 19.1046 14 18Z" fill="#F0F0F0"/>
</svg>
