<svg width="43" height="43" viewBox="0 0 43 43" fill="none" xmlns="http://www.w3.org/2000/svg">
  <path d="M21.5 0C9.64502 0 0 9.64502 0 21.5C0 33.355 9.64502 43 21.5 43C33.355 43 43 33.355 43 21.5C43 9.64502 33.355 0 21.5 0ZM21.7067 9.92308C23.1787 9.92308 24.6176 10.3596 25.8415 11.1773C27.0653 11.9951 28.0192 13.1574 28.5825 14.5173C29.1458 15.8772 29.2932 17.3736 29.006 18.8173C28.7189 20.261 28.0101 21.5871 26.9692 22.6279C25.9284 23.6687 24.6023 24.3775 23.1587 24.6647C21.715 24.9519 20.2186 24.8045 18.8587 24.2412C17.4988 23.6779 16.3364 22.724 15.5187 21.5001C14.7009 20.2762 14.2644 18.8373 14.2644 17.3654C14.2644 15.3916 15.0485 13.4986 16.4442 12.1029C17.8399 10.7072 19.7329 9.92308 21.7067 9.92308ZM21.5 39.6923C18.9908 39.6933 16.5086 39.174 14.2103 38.167C11.912 37.16 9.84748 35.6872 8.14726 33.8418C9.06101 29.1098 17.2682 28.1154 21.5 28.1154C25.7318 28.1154 33.939 29.1098 34.8527 33.8408C33.1527 35.6865 31.0883 37.1596 28.79 38.1667C26.4916 39.1739 24.0093 39.6934 21.5 39.6923Z" fill="#E2E2EA" />
</svg>