<svg width="200" height="200" viewBox="0 0 200 200" fill="none" xmlns="http://www.w3.org/2000/svg">
<path d="M100 0C44.8606 0 0 44.8606 0 100C0 155.139 44.8606 200 100 200C155.139 200 200 155.139 200 100C200 44.8606 155.139 0 100 0ZM100.962 46.1538C107.808 46.1538 114.5 48.184 120.193 51.9876C125.885 55.7912 130.322 61.1974 132.942 67.5225C135.562 73.8476 136.247 80.8076 134.912 87.5224C133.576 94.2371 130.279 100.405 125.438 105.246C120.597 110.087 114.429 113.384 107.715 114.719C101 116.055 94.0399 115.37 87.7148 112.75C81.3897 110.13 75.9835 105.693 72.1799 100.001C68.3763 94.308 66.3462 87.6155 66.3462 80.7692C66.3462 71.5887 69.9931 62.7841 76.4848 56.2925C82.9764 49.8008 91.781 46.1538 100.962 46.1538ZM100 184.615C88.3291 184.62 76.7841 182.204 66.0943 177.521C55.4045 172.837 45.8022 165.987 37.8942 157.404C42.1442 135.394 80.3173 130.769 100 130.769C119.683 130.769 157.856 135.394 162.106 157.399C154.199 165.984 144.597 172.835 133.907 177.52C123.217 182.204 111.671 184.62 100 184.615Z" fill="#E2E2EA"/>
</svg>
